<?xml version="1.0" standalone="no"?>
<!DOCTYPE svg PUBLIC "-//W3C//DTD SVG 20010904//EN"
 "http://www.w3.org/TR/2001/REC-SVG-20010904/DTD/svg10.dtd">
<svg version="1.0" xmlns="http://www.w3.org/2000/svg"
 width="225.000000pt" height="225.000000pt" viewBox="0 0 225.000000 225.000000"
 preserveAspectRatio="xMidYMid meet">
<metadata>
Created by potrace 1.14, written by Peter Selinger 2001-2017
</metadata>
<g transform="translate(0.000000,225.000000) scale(0.100000,-0.100000)"
fill="#000000" stroke="none">
<path d="M560 1954 c-180 -47 -322 -178 -382 -351 -41 -119 -27 -349 28 -454
l14 -27 173 -2 174 -1 43 57 c51 65 40 72 127 -81 32 -57 61 -101 64 -97 3 4
41 84 83 177 43 94 81 174 85 178 4 4 52 -108 106 -250 92 -241 115 -294 115
-266 0 7 24 65 54 130 29 65 66 145 81 177 l26 60 48 -85 c26 -46 52 -92 58
-103 9 -16 15 -12 51 40 23 33 46 65 52 72 8 9 70 12 244 12 l233 0 22 67 c89
270 10 528 -203 671 -211 141 -501 114 -676 -63 l-53 -54 -63 59 c-135 126
-334 179 -504 134z"/>
<path d="M886 1090 c-44 -94 -83 -170 -87 -170 -4 0 -29 39 -57 88 -72 128
-86 152 -92 152 -3 0 -16 -16 -29 -35 l-24 -35 -178 0 c-99 0 -179 -4 -179 -9
0 -18 80 -129 142 -195 34 -38 139 -137 233 -221 258 -230 324 -298 440 -455
37 -49 69 -90 71 -90 1 0 30 39 63 88 33 48 96 126 138 174 75 82 113 119 359
343 135 123 228 223 282 303 23 33 42 63 42 66 0 4 -96 6 -213 6 l-214 0 -58
-87 c-45 -67 -60 -84 -67 -73 -5 8 -31 52 -57 98 l-47 83 -42 -96 c-23 -52
-61 -138 -84 -190 -23 -52 -44 -95 -48 -95 -3 0 -17 30 -32 68 -14 37 -58 154
-99 260 -40 105 -76 192 -79 192 -3 0 -41 -77 -84 -170z"/>
</g>
</svg>
